<svg width="76" height="93" viewBox="0 0 76 93" fill="none" xmlns="http://www.w3.org/2000/svg">
<rect y="5.48222" width="76" height="86.5715" rx="6" fill="white"/>
<g clip-path="url(#clip0_1_15)">
<path d="M21 41.4822C26.5228 41.4822 31 37.0051 31 31.4822C31 25.9594 26.5228 21.4822 21 21.4822C15.4772 21.4822 11 25.9594 11 31.4822C11 37.0051 15.4772 41.4822 21 41.4822Z" fill="#FF4A00"/>
<path d="M22.25 31.4844C22.2501 31.8446 22.185 32.2019 22.058 32.5391C21.7206 32.6666 21.3629 32.732 21.0021 32.7322H20.9979C20.6376 32.7322 20.2803 32.6672 19.9432 32.5402C19.8156 32.2028 19.7502 31.8451 19.75 31.4844V31.4801C19.75 31.1198 19.8151 30.7625 19.942 30.4254C20.2794 30.2978 20.6371 30.2324 20.9979 30.2322H21.0021C21.3628 30.2321 21.7205 30.2972 22.058 30.4244C22.185 30.7615 22.2501 31.1188 22.25 31.4791V31.4834V31.4844ZM25.9305 30.6488H23.0117L25.0756 28.5851C24.9135 28.3578 24.7327 28.1444 24.5352 27.9471C24.3378 27.7498 24.1244 27.5693 23.8971 27.4074L21.8334 29.4705V26.5517C21.5589 26.5056 21.2811 26.4824 21.0027 26.4822H20.9975C20.7191 26.4824 20.4413 26.5056 20.1668 26.5517V29.4705L18.1029 27.4066C17.8756 27.5687 17.6622 27.7495 17.4648 27.9471C17.2676 28.1443 17.0872 28.3576 16.9254 28.5848L18.9883 30.6488H16.0695C16.0695 30.6488 16 31.1971 16 31.4805V31.484C16.0001 31.7626 16.0234 32.0408 16.0695 32.3156H18.9883L16.9244 34.3793C17.249 34.8349 17.6473 35.2333 18.1029 35.5578L20.1666 33.4939V36.4127C20.4408 36.4587 20.7184 36.482 20.9965 36.4822H21.0037C21.2817 36.482 21.5592 36.4587 21.8334 36.4127V33.4939L23.8971 35.5578C24.1244 35.3957 24.3378 35.2149 24.5352 35.0174C24.7325 34.82 24.9131 34.6066 25.075 34.3793L23.0117 32.3156H25.9305C25.9765 32.0414 25.9998 31.7638 26 31.4857V31.4785C25.9998 31.2005 25.9765 30.923 25.9305 30.6488Z" fill="white"/>
</g>
<path fill-rule="evenodd" clip-rule="evenodd" d="M49 22.4822C47.8954 22.4822 47 23.3776 47 24.4822V38.4822C47 39.5868 47.8954 40.4822 49 40.4822H63C64.1046 40.4822 65 39.5868 65 38.4822V24.4822C65 23.3776 64.1046 22.4822 63 22.4822L49 22.4822Z" fill="white"/>
<path fill-rule="evenodd" clip-rule="evenodd" d="M49 22.4822C47.8954 22.4822 47 23.3776 47 24.4822V38.4822C47 39.5868 47.8954 40.4822 49 40.4822H63C64.1046 40.4822 65 39.5868 65 38.4822V24.4822C65 23.3776 64.1046 22.4822 63 22.4822L49 22.4822ZM59.401 29.8254C59.401 29.8254 58.428 32.7643 58.3485 33.007C58.1035 31.1651 57.8561 29.3235 57.6065 27.4822C55.9485 27.4822 55.062 28.6187 54.5935 29.8182L53.311 33.0143C53.3035 32.7851 53.131 29.8529 53.131 29.8529C53.029 28.3832 51.631 27.4885 50.5 27.4885L51.8695 35.4822C53.6065 35.475 54.543 34.3453 55.0335 33.1457C55.0335 33.1457 56.0785 30.5463 56.1215 30.4283C56.129 30.5391 56.8715 35.4817 56.8715 35.4817C58.6155 35.4817 59.5525 34.4214 60.0565 33.2637L62.5 27.489C60.7775 27.489 59.8695 28.6192 59.401 29.8254Z" fill="#4353FF"/>
<path fill-rule="evenodd" clip-rule="evenodd" d="M15 69.8632H21.5V76.0537L15 69.8632Z" fill="#0055FF"/>
<path d="M21.5 63.6727H15L15 69.8632H28L21.5 63.6727Z" fill="#00AAFF"/>
<path d="M15 57.4822L21.5 63.6727H28V57.4822H15Z" fill="#88DDFF"/>
<path d="M45.1246 66.768C45.1246 69.6907 46.8246 72.208 49.2831 73.4045L45.7654 63.7668C45.343 64.711 45.1246 65.7336 45.1246 66.768ZM52.5 74.1433C53.3565 74.1433 54.1804 73.993 54.9519 73.7249L54.8996 73.6268L52.6308 67.4153L50.4208 73.8426C51.0746 74.0387 51.7742 74.1433 52.5 74.1433ZM53.5135 63.3091L56.1811 71.2403L56.92 68.7818C57.2339 67.7618 57.4758 67.0295 57.4758 66.3953C57.4758 65.4799 57.1489 64.8522 56.8742 64.3683C56.495 63.7537 56.1485 63.2372 56.1485 62.6357C56.1485 61.9557 56.6585 61.328 57.3908 61.328H57.4823C56.1233 60.0804 54.3448 59.3895 52.5 59.3926C51.2785 59.3924 50.0761 59.6958 49.001 60.2756C47.9258 60.8554 47.0117 61.6933 46.3408 62.7141L46.8115 62.7272C47.5831 62.7272 48.7731 62.6291 48.7731 62.6291C49.1785 62.6095 49.2242 63.1914 48.8254 63.2372C48.8254 63.2372 48.4265 63.2895 47.9754 63.3091L50.6692 71.2991L52.2842 66.4607L51.1335 63.3091C50.8757 63.2949 50.6184 63.2731 50.3619 63.2437C49.9631 63.2176 50.0089 62.6095 50.4077 62.6291C50.4077 62.6291 51.6239 62.7272 52.3496 62.7272C53.1211 62.7272 54.3111 62.6291 54.3111 62.6291C54.71 62.6095 54.7623 63.1914 54.3635 63.2372C54.3635 63.2372 53.9646 63.283 53.5135 63.3091ZM56.2073 73.143C57.3231 72.4942 58.249 71.564 58.8927 70.4453C59.5364 69.3266 59.8752 68.0586 59.8754 66.768C59.8754 65.4864 59.5485 64.2833 58.9731 63.2307C59.0899 64.3888 58.9146 65.5578 58.4631 66.6307L56.2073 73.143ZM52.5 75.268C50.2457 75.268 48.0837 74.3724 46.4896 72.7784C44.8955 71.1843 44 69.0223 44 66.768C44 64.5136 44.8955 62.3516 46.4896 60.7576C48.0837 59.1635 50.2457 58.268 52.5 58.268C54.7543 58.268 56.9163 59.1635 58.5104 60.7576C60.1045 62.3516 61 64.5136 61 66.768C61 69.0223 60.1045 71.1843 58.5104 72.7784C56.9163 74.3724 54.7543 75.268 52.5 75.268Z" fill="#126FC2"/>
<rect x="20.5" width="35" height="11" rx="5.5" fill="black"/>
<path d="M28.7543 4.2C28.9709 4.2 29.1643 4.245 29.3343 4.335C29.5076 4.425 29.6426 4.55833 29.7393 4.735C29.8359 4.91167 29.8843 5.125 29.8843 5.375V7H29.3193V5.46C29.3193 5.21333 29.2576 5.025 29.1343 4.895C29.0109 4.76167 28.8426 4.695 28.6293 4.695C28.4159 4.695 28.2459 4.76167 28.1193 4.895C27.9959 5.025 27.9343 5.21333 27.9343 5.46V7H27.3643V4.245H27.9343V4.56C28.0276 4.44667 28.1459 4.35833 28.2893 4.295C28.4359 4.23167 28.5909 4.2 28.7543 4.2ZM31.8063 7.045C31.5463 7.045 31.3113 6.98667 31.1013 6.87C30.8913 6.75 30.7263 6.58333 30.6063 6.37C30.4863 6.15333 30.4263 5.90333 30.4263 5.62C30.4263 5.34 30.488 5.09167 30.6113 4.875C30.7347 4.65833 30.903 4.49167 31.1163 4.375C31.3297 4.25833 31.568 4.2 31.8313 4.2C32.0947 4.2 32.333 4.25833 32.5463 4.375C32.7597 4.49167 32.928 4.65833 33.0513 4.875C33.1747 5.09167 33.2363 5.34 33.2363 5.62C33.2363 5.9 33.173 6.14833 33.0463 6.365C32.9197 6.58167 32.7463 6.75 32.5263 6.87C32.3097 6.98667 32.0697 7.045 31.8063 7.045ZM31.8063 6.55C31.953 6.55 32.0897 6.515 32.2163 6.445C32.3463 6.375 32.4513 6.27 32.5313 6.13C32.6113 5.99 32.6513 5.82 32.6513 5.62C32.6513 5.42 32.613 5.25167 32.5363 5.115C32.4597 4.975 32.358 4.87 32.2313 4.8C32.1047 4.73 31.968 4.695 31.8213 4.695C31.6747 4.695 31.538 4.73 31.4113 4.8C31.288 4.87 31.1897 4.975 31.1163 5.115C31.043 5.25167 31.0063 5.42 31.0063 5.62C31.0063 5.91667 31.0813 6.14667 31.2313 6.31C31.3847 6.47 31.5763 6.55 31.8063 6.55ZM35.9148 4.95V5.43H33.8598V4.95H35.9148ZM36.5346 5.62C36.5346 5.33667 36.5913 5.08833 36.7046 4.875C36.8213 4.65833 36.9813 4.49167 37.1846 4.375C37.3879 4.25833 37.6213 4.2 37.8846 4.2C38.2179 4.2 38.4929 4.28 38.7096 4.44C38.9296 4.59667 39.0779 4.82167 39.1546 5.115H38.5396C38.4896 4.97833 38.4096 4.87167 38.2996 4.795C38.1896 4.71833 38.0513 4.68 37.8846 4.68C37.6513 4.68 37.4646 4.76333 37.3246 4.93C37.1879 5.09333 37.1196 5.32333 37.1196 5.62C37.1196 5.91667 37.1879 6.14833 37.3246 6.315C37.4646 6.48167 37.6513 6.565 37.8846 6.565C38.2146 6.565 38.4329 6.42 38.5396 6.13H39.1546C39.0746 6.41 38.9246 6.63333 38.7046 6.8C38.4846 6.96333 38.2113 7.045 37.8846 7.045C37.6213 7.045 37.3879 6.98667 37.1846 6.87C36.9813 6.75 36.8213 6.58333 36.7046 6.37C36.5913 6.15333 36.5346 5.90333 36.5346 5.62ZM40.9177 7.045C40.6577 7.045 40.4227 6.98667 40.2127 6.87C40.0027 6.75 39.8377 6.58333 39.7177 6.37C39.5977 6.15333 39.5377 5.90333 39.5377 5.62C39.5377 5.34 39.5993 5.09167 39.7227 4.875C39.846 4.65833 40.0143 4.49167 40.2277 4.375C40.441 4.25833 40.6793 4.2 40.9427 4.2C41.206 4.2 41.4443 4.25833 41.6577 4.375C41.871 4.49167 42.0393 4.65833 42.1627 4.875C42.286 5.09167 42.3477 5.34 42.3477 5.62C42.3477 5.9 42.2843 6.14833 42.1577 6.365C42.031 6.58167 41.8577 6.75 41.6377 6.87C41.421 6.98667 41.181 7.045 40.9177 7.045ZM40.9177 6.55C41.0643 6.55 41.201 6.515 41.3277 6.445C41.4577 6.375 41.5627 6.27 41.6427 6.13C41.7227 5.99 41.7627 5.82 41.7627 5.62C41.7627 5.42 41.7243 5.25167 41.6477 5.115C41.571 4.975 41.4693 4.87 41.3427 4.8C41.216 4.73 41.0793 4.695 40.9327 4.695C40.786 4.695 40.6493 4.73 40.5227 4.8C40.3993 4.87 40.301 4.975 40.2277 5.115C40.1543 5.25167 40.1177 5.42 40.1177 5.62C40.1177 5.91667 40.1927 6.14667 40.3427 6.31C40.496 6.47 40.6877 6.55 40.9177 6.55ZM42.7211 5.61C42.7211 5.33333 42.7778 5.08833 42.8911 4.875C43.0078 4.66167 43.1645 4.49667 43.3611 4.38C43.5611 4.26 43.7828 4.2 44.0261 4.2C44.2061 4.2 44.3828 4.24 44.5561 4.32C44.7328 4.39667 44.8728 4.5 44.9761 4.63V3.3L45.5511 3.3V7H44.9761V6.585C44.8828 6.71833 44.7528 6.82833 44.5861 6.915C44.4228 7.00167 44.2345 7.045 44.0211 7.045C43.7811 7.045 43.5611 6.985 43.3611 6.865C43.1645 6.74167 43.0078 6.57167 42.8911 6.355C42.7778 6.135 42.7211 5.88667 42.7211 5.61ZM44.9761 5.62C44.9761 5.43 44.9361 5.265 44.8561 5.125C44.7795 4.985 44.6778 4.87833 44.5511 4.805C44.4245 4.73167 44.2878 4.695 44.1411 4.695C43.9945 4.695 43.8578 4.73167 43.7311 4.805C43.6045 4.875 43.5011 4.98 43.4211 5.12C43.3445 5.25667 43.3061 5.42 43.3061 5.61C43.3061 5.8 43.3445 5.96667 43.4211 6.11C43.5011 6.25333 43.6045 6.36333 43.7311 6.44C43.8611 6.51333 43.9978 6.55 44.1411 6.55C44.2878 6.55 44.4245 6.51333 44.5511 6.44C44.6778 6.36667 44.7795 6.26 44.8561 6.12C44.9361 5.97667 44.9761 5.81 44.9761 5.62ZM48.8248 5.555C48.8248 5.65833 48.8181 5.75167 48.8048 5.835H46.6998C46.7165 6.055 46.7981 6.23167 46.9448 6.365C47.0915 6.49833 47.2715 6.565 47.4848 6.565C47.7915 6.565 48.0081 6.43667 48.1348 6.18H48.7498C48.6665 6.43333 48.5148 6.64167 48.2948 6.805C48.0781 6.965 47.8081 7.045 47.4848 7.045C47.2215 7.045 46.9848 6.98667 46.7748 6.87C46.5681 6.75 46.4048 6.58333 46.2848 6.37C46.1681 6.15333 46.1098 5.90333 46.1098 5.62C46.1098 5.33667 46.1665 5.08833 46.2798 4.875C46.3965 4.65833 46.5581 4.49167 46.7648 4.375C46.9748 4.25833 47.2148 4.2 47.4848 4.2C47.7448 4.2 47.9765 4.25667 48.1798 4.37C48.3831 4.48333 48.5415 4.64333 48.6548 4.85C48.7681 5.05333 48.8248 5.28833 48.8248 5.555ZM48.2298 5.375C48.2265 5.165 48.1515 4.99667 48.0048 4.87C47.8581 4.74333 47.6765 4.68 47.4598 4.68C47.2631 4.68 47.0948 4.74333 46.9548 4.87C46.8148 4.99333 46.7315 5.16167 46.7048 5.375H48.2298Z" fill="white"/>
<defs>
<clipPath id="clip0_1_15">
<rect width="20" height="20" fill="white" transform="translate(11 21.4822)"/>
</clipPath>
</defs>
</svg>
