<svg width="3" height="8" viewBox="0 0 3 8" fill="none" xmlns="http://www.w3.org/2000/svg">
<path d="M1.67981 2.27449C1.57881 2.27865 1.47812 2.26089 1.38424 2.22241C1.29041 2.18393 1.20554 2.12552 1.13522 2.05109C1.06511 1.97339 1.0106 1.8823 0.974914 1.78293C0.939227 1.68362 0.923043 1.57803 0.92726 1.47223C0.923675 1.36749 0.941651 1.26317 0.980027 1.16604C1.01846 1.06892 1.07639 0.981197 1.15008 0.908599C1.22304 0.836755 1.30917 0.780467 1.40353 0.742992C1.49784 0.705512 1.59847 0.687595 1.69958 0.690262C1.93727 0.690262 2.12372 0.763044 2.25903 0.908599C2.32735 0.984244 2.38043 1.07296 2.41528 1.16968C2.45007 1.26638 2.46599 1.36923 2.46198 1.47223C2.46615 1.5784 2.44944 1.68441 2.41285 1.78382C2.37632 1.88324 2.3206 1.97412 2.24912 2.05109C2.17443 2.12663 2.08523 2.18545 1.98729 2.22394C1.8893 2.26236 1.78461 2.2796 1.67981 2.27449ZM0.996579 7.74824V2.89399C0.996579 2.83305 1.02288 2.80258 1.07581 2.80258H2.29372C2.34643 2.80258 2.37284 2.83305 2.3729 2.89399V7.74824C2.3729 7.81603 2.34649 7.84987 2.29372 7.84982H1.08572C1.02631 7.84982 0.996579 7.81597 0.996579 7.74824Z" fill="#FF9A00"/>
</svg>
