<svg width="7" height="7" viewBox="0 0 7 7" fill="none" xmlns="http://www.w3.org/2000/svg">
<path d="M4.3926 5.27576H2.10538L1.64002 6.75846C1.62711 6.81354 1.5764 6.85255 1.5212 6.84981H0.362723C0.296656 6.84981 0.273556 6.81259 0.293414 6.73811L2.2737 0.888615C2.29352 0.827677 2.31334 0.758305 2.33311 0.680446C2.35904 0.544918 2.37228 0.407228 2.37275 0.269169C2.36706 0.228369 2.4029 0.192334 2.44202 0.198048H4.01638C4.06251 0.198048 4.08886 0.214979 4.09556 0.248822L6.34324 6.74828C6.36301 6.81602 6.34324 6.84986 6.28383 6.84981H4.9966C4.95148 6.85498 4.90836 6.82403 4.89761 6.77875L4.3926 5.27576ZM2.46184 3.99618H4.02629C3.76926 3.11785 3.47917 2.25107 3.24406 1.36594C2.9904 2.2526 2.71365 3.13567 2.46184 3.99618Z" fill="#FF9A00"/>
</svg>
