<svg width="6" height="8" viewBox="0 0 6 8" fill="none" xmlns="http://www.w3.org/2000/svg">
<path d="M0.782852 6.93497V0.444364C0.782852 0.400242 0.801302 0.374992 0.844354 0.374992C1.47989 0.374992 2.11515 0.337143 2.75083 0.337143C3.7824 0.337143 4.89931 0.689854 5.29082 1.76897C5.38307 2.03391 5.43225 2.30513 5.43225 2.58899C5.43225 3.13147 5.30927 3.57928 5.06325 3.93252C4.37607 4.91923 3.18504 4.90389 2.11742 4.90389V6.9287C2.12575 6.98863 2.07467 7.01699 2.02517 7.01699H0.856652C0.807454 7.01699 0.782852 6.99174 0.782852 6.93497ZM2.12353 1.59238V3.71175C2.54688 3.74275 2.98984 3.74612 3.39658 3.61086C3.84566 3.48129 4.09157 3.09262 4.09157 2.62684C4.10401 2.22996 3.88778 1.84915 3.51962 1.70592C3.11778 1.53882 2.55732 1.5288 2.12353 1.59238Z" fill="#31A8FF"/>
</svg>
