<svg width="5" height="8" viewBox="0 0 5 8" fill="none" xmlns="http://www.w3.org/2000/svg">
<path d="M0.162857 7.43516V0.799627C0.162857 0.754488 0.18136 0.728694 0.224538 0.728694C0.861975 0.728694 1.49911 0.690002 2.13674 0.690002C3.17131 0.690002 4.2916 1.05058 4.68427 2.15383C4.77678 2.42467 4.82612 2.70195 4.82612 2.99214C4.82612 3.54669 4.70277 4.00452 4.45601 4.36566C3.76683 5.3744 2.57222 5.35875 1.50138 5.35875V7.42868C1.50976 7.48999 1.45852 7.51898 1.40886 7.51898H0.236878C0.187533 7.51898 0.162857 7.4932 0.162857 7.43516ZM1.50755 1.97328V4.13994C1.93216 4.17168 2.37644 4.1751 2.78439 4.03678C3.23478 3.90436 3.48143 3.507 3.48143 3.03083C3.49398 2.62509 3.27706 2.23574 2.9078 2.08936C2.50474 1.91851 1.94265 1.90828 1.50755 1.97328Z" fill="#9999FF"/>
</svg>
