<svg width="4" height="6" viewBox="0 0 4 6" fill="none" xmlns="http://www.w3.org/2000/svg">
<path d="M0.662283 0.383125H1.74482C1.80449 0.383704 1.85811 0.426772 1.87387 0.486972C1.9532 0.671103 1.96301 0.893188 1.96327 1.09197C2.14893 0.865987 2.37276 0.677745 2.62368 0.536523C2.89278 0.377379 3.19784 0.296673 3.50696 0.302946C3.5583 0.29525 3.60369 0.342746 3.59636 0.396356V1.65259C3.59636 1.70114 3.56315 1.72528 3.49705 1.72528C3.03885 1.69223 2.32552 1.80541 1.99258 2.18211V5.44849C1.99258 5.5108 1.96612 5.54196 1.91314 5.54196H0.751686C0.694649 5.5505 0.644307 5.49683 0.652372 5.43811V1.89139C0.652372 1.41617 0.662229 0.926609 0.592804 0.455818C0.582103 0.412487 0.621745 0.372213 0.662283 0.383125Z" fill="#9999FF"/>
</svg>
