<svg width="4" height="7" viewBox="0 0 4 7" fill="none" xmlns="http://www.w3.org/2000/svg">
<path d="M3.26811 2.29305C3.08203 2.19495 2.88382 2.1232 2.67892 2.07977C2.41567 2.01783 1.3773 1.80086 1.37688 2.34381C1.3861 2.64692 1.86728 2.79542 2.07987 2.88203C2.82626 3.13827 3.67085 3.5963 3.65424 4.51707C3.67707 5.66328 2.56648 6.12153 1.61451 6.12164C1.11895 6.12675 0.602662 6.05 0.149108 5.83724C0.105777 5.81431 0.0779448 5.76534 0.0797898 5.71537V4.61859C0.0748874 4.57463 0.122119 4.5362 0.159019 4.56783C0.6034 4.83657 1.13012 4.96709 1.64424 4.97404C1.87118 4.97404 2.32094 4.95206 2.31756 4.61859C2.31756 4.29862 1.77951 4.15149 1.56501 4.07021C1.25411 3.95924 0.959327 3.80547 0.688745 3.61322C0.310572 3.34349 0.0733586 2.91102 0.0797898 2.43522C0.0775758 1.35595 1.09986 0.871503 2.02052 0.871292C2.45088 0.867707 2.91308 0.899599 3.31371 1.0744C3.37132 1.09132 3.38324 1.15205 3.38302 1.2064V2.23211C3.38666 2.29579 3.31597 2.31746 3.26811 2.29305Z" fill="#31A8FF"/>
</svg>
